<svg width="24" height="24" viewBox="0 0 24 24" fill="none" xmlns="http://www.w3.org/2000/svg">
<path d="M14 2.75C16.8995 2.75 19.25 5.10051 19.25 8C19.25 9.60291 18.5308 11.037 17.3984 12C18.5308 12.963 19.25 14.3971 19.25 16C19.25 18.8995 16.8995 21.25 14 21.25H6C5.30964 21.25 4.75 20.6904 4.75 20V4C4.75 3.30964 5.30964 2.75 6 2.75H14ZM7.25 18.75H14C15.5188 18.75 16.75 17.5188 16.75 16C16.75 14.4812 15.5188 13.25 14 13.25H7.25V18.75ZM7.25 10.75H14C15.5188 10.75 16.75 9.51878 16.75 8C16.75 6.48122 15.5188 5.25 14 5.25H7.25V10.75Z" fill="black"/>
</svg>
