<svg width="24" height="24" viewBox="0 0 24 24" fill="none" xmlns="http://www.w3.org/2000/svg">
<path d="M16.5811 14C16.8489 14.6128 17 15.2885 17 16C17 18.7614 14.7614 21 12 21H11C8.23858 21 6 18.7614 6 16C6 15.4477 6.44772 15 7 15C7.55228 15 8 15.4477 8 16C8 17.6569 9.34315 19 11 19H12C13.6569 19 15 17.6569 15 16C15 15.2305 14.7077 14.531 14.2314 14H16.5811ZM20 11.75C20.4142 11.75 20.75 12.0858 20.75 12.5C20.75 12.9142 20.4142 13.25 20 13.25H4C3.58579 13.25 3.25 12.9142 3.25 12.5C3.25 12.0858 3.58579 11.75 4 11.75H20ZM12.25 3C14.8734 3 17 5.12665 17 7.75V8C17 8.55228 16.5523 9 16 9C15.4477 9 15 8.55228 15 8V7.75C15 6.23122 13.7688 5 12.25 5H12C10.3431 5 9 6.34315 9 8C9 9.65685 10.3431 11 12 11H8.00293C7.37448 10.1641 7 9.12634 7 8C7 5.23858 9.23858 3 12 3H12.25Z" fill="black"/>
</svg>
