<svg width="24" height="24" viewBox="0 0 24 24" fill="none" xmlns="http://www.w3.org/2000/svg">
<path d="M18 19.999C18.5523 19.999 19 20.4467 19 20.999C19 21.5513 18.5523 21.999 18 21.999H6C5.44772 21.999 5 21.5513 5 20.999C5 20.4467 5.44772 19.999 6 19.999H18ZM18 2.00098C18.5523 2.00098 19 2.44869 19 3.00098V11C19 14.866 15.866 18 12 18C8.13401 18 5 14.866 5 11V3.00098C5 2.44869 5.44771 2.00098 6 2.00098C6.55228 2.00098 7 2.44869 7 3.00098V11C7 13.7614 9.23858 16 12 16C14.7614 16 17 13.7614 17 11V3.00098C17 2.44869 17.4477 2.00098 18 2.00098Z" fill="black"/>
</svg>
