<svg width="24" height="24" viewBox="0 0 24 24" fill="none" xmlns="http://www.w3.org/2000/svg">
<path fill-rule="evenodd" clip-rule="evenodd" d="M17.295 3.70001C16.9596 3.78585 16.6436 3.93484 16.364 4.13901C16.263 4.21401 13.666 6.79201 10.592 9.86801L5.005 15.46L3.942 17.799L2.88 20.139L3.269 20.529L3.658 20.92H4.301L6.421 19.958L8.54 18.995L14.152 13.388C19.866 7.67801 19.983 7.55501 20.191 7.05701C20.36 6.65401 20.403 6.07101 20.3 5.58001C20.114 4.69101 19.309 3.88601 18.42 3.70001C18.0485 3.62799 17.6665 3.62799 17.295 3.70001ZM18.215 5.79601C18.325 5.90601 18.34 5.94901 18.34 6.14101V6.36001L12.85 11.85L7.36 17.34L6.755 17.612C6.423 17.762 6.143 17.876 6.133 17.866C6.123 17.857 6.235 17.581 6.382 17.254L6.649 16.66L12.114 11.187C15.12 8.17701 17.616 5.69701 17.66 5.67701C17.817 5.60601 18.081 5.66201 18.215 5.79601ZM11.673 19.063C11.304 19.177 11 19.609 11 20.02C11 20.405 11.318 20.829 11.69 20.939C11.866 20.992 12.389 21 15.5 21C19.583 21 19.379 21.015 19.697 20.697C19.88 20.514 20 20.237 20 20C20 19.598 19.688 19.173 19.31 19.061C19.012 18.972 11.961 18.974 11.673 19.063Z" fill="black"/>
</svg>
