<svg width="260" height="100" viewBox="0 0 260 100" fill="none" xmlns="http://www.w3.org/2000/svg">
<path fill-rule="evenodd" clip-rule="evenodd" d="M213.109 12.2112C213.241 12.2235 213.371 12.238 213.502 12.2547C219.021 12.9686 219.452 25.3265 218.835 29.5081C219.405 30.6475 219.411 30.9255 219.437 32.1647L219.438 32.222C223.524 31.2927 229.614 31.18 233.775 31.4695C235.52 27.163 237.736 23.3149 241.126 19.8985C242.864 17.6316 249.107 15.0824 248.713 20.1934C248.423 23.9687 242.485 28.9604 239.372 31.577C239.086 31.8176 238.824 32.0381 238.592 32.2357C242.216 33.2721 245.803 35.5272 245.722 39.7286C245.653 43.2686 243.424 45.4016 241.039 47.6838C250.689 48.1292 255.927 52.4146 254.427 62.3168C252.779 73.1889 243.453 73.6243 234.775 74.0294C234.34 74.0497 233.905 74.0699 233.474 74.0914C229.98 74.2821 226.485 74.4132 222.988 74.4845C220.525 78.5923 218.599 85.5455 222.311 89.4828C224.625 91.9378 229.857 92.5073 233.282 92.5192C237.403 92.5324 244.309 92.4835 247.427 89.3587C247.77 88.8741 247.967 88.2741 248.165 87.6703C248.441 86.8274 248.72 85.9769 249.402 85.4227C251.324 83.9181 254.387 84.5691 255.872 86.3158C258.152 89.0006 257.281 93.2591 254.591 95.3176C248.691 99.8364 237.421 100.385 230.473 99.8152C219.323 98.8864 213.34 94.3016 217.523 82.5934C217.443 82.6986 217.359 82.809 217.272 82.9245C214.241 86.931 206.73 96.8608 202.136 97.6828C200.706 97.9378 199.2 97.6814 198.007 96.8345C197.103 96.1937 196.268 95.1948 196.099 94.0823C195.933 92.9843 196.225 91.5904 196.809 90.647C197.818 89.013 200.118 86.8299 202.012 85.033C202.658 84.4194 203.258 83.8507 203.742 83.3645C206.421 80.672 209.036 77.719 211.281 74.6596C210.392 74.5955 209.51 74.547 208.631 74.4988C205.695 74.3376 202.8 74.1786 199.846 73.4476C193.225 71.8092 195.465 61.0735 196.53 56.3363C197.508 51.9859 200.364 50.0234 204.653 51.2215C209.252 48.4464 220.265 47.8044 225.87 47.5668C226.216 47.3362 226.746 47.0202 227.373 46.6461C229.927 45.1227 234.103 42.632 234.138 40.9824C234.043 40.6728 233.936 40.4517 233.668 40.2538C230.848 38.1667 217.959 40.0729 214.075 40.6486C213.777 40.9667 213.463 41.309 213.134 41.6667C209.698 45.4095 204.703 50.8499 199.77 48.1966C197.36 46.8993 196.293 43.519 197.958 41.4344C200.833 37.8317 209.461 28.5746 213.596 27.5305C212.063 24.2983 207.109 13.4064 213.109 12.2112ZM221.029 56.3688C220.846 56.3756 220.632 56.3812 220.403 56.3871C219.711 56.405 218.884 56.4264 218.361 56.4949C217.985 56.525 217.546 56.5581 217.06 56.5946C213.913 56.8312 208.834 57.2129 206.691 57.8637C206.202 59.2224 205.887 60.5365 205.829 61.9835L205.828 62.0063C205.737 64.3015 205.664 66.1371 208.35 66.5965C211.071 66.6582 213.773 66.6731 216.49 66.4815C217.695 64.0933 220.289 58.7928 221.029 56.3688ZM243.455 63.8651C246.016 58.9117 243.552 55.5639 238.005 55.7989C237.093 55.8376 236.141 55.8263 235.205 55.8151C234.212 55.8033 233.237 55.7915 232.342 55.84C232.275 55.8481 232.202 55.8533 232.129 55.8586C231.851 55.8785 231.562 55.8993 231.483 56.0838C231.096 56.9831 230.704 58.0334 230.33 59.0382C230.122 59.5959 229.919 60.1395 229.726 60.6356C228.992 62.479 228.213 64.3053 227.393 66.1125C228.353 66.0837 229.358 66.06 230.384 66.0359C233.396 65.965 236.593 65.8897 239.361 65.6659C240.796 65.4556 242.809 65.1144 243.455 63.8651Z" fill="#391C07"/>
<path d="M67.0618 30.9106C70.773 30.9365 74.3933 31.3513 77.7938 32.9198C87.4117 37.3559 86.1794 49.2619 82.5157 57.275C78.5528 65.943 68.8962 65.3645 60.8593 65.8618C59.1744 65.9627 54.9317 65.6271 54.4128 67.6434C53.3628 71.2168 52.5448 77.7691 53.7246 81.2803C55.7508 87.3101 68.1693 85.2476 72.7008 83.5038C73.8098 83.0365 75.1874 82.2732 75.6364 81.0877C75.916 80.3496 74.7796 79.1126 74.449 78.4079C73.3156 75.9921 75.0332 73.3742 77.2277 72.2837C80.6422 70.5376 84.4043 72.6296 85.8292 75.9176C88.3425 81.7171 85.817 88.3685 80.8969 92.0324C79.4797 93.0881 78.2498 93.6548 76.6647 94.3603C71.8826 96.2709 66.7729 96.851 61.6678 96.8959C49.2282 97.0056 41.5982 91.8196 41.628 78.7063C41.6765 74.6869 42.2644 70.6918 43.3763 66.8276C44.029 64.4845 44.8374 61.978 46.4521 60.1068C50.4521 55.4718 60.4533 55.6738 66.1968 55.3057C67.9407 55.1939 70.2299 55.1243 71.5218 53.7656C73.047 52.1616 73.4034 49.2876 73.286 47.1857C73.2142 45.9004 72.803 44.6064 71.7841 43.7533C67.6829 40.3194 54.1554 44.1738 49.014 44.6267C47.436 44.7657 45.7489 44.663 44.5012 43.5757C43.6124 42.8012 43.1333 41.5861 43.0422 40.4308C42.9284 38.9836 43.4536 37.6219 44.3977 36.5308C47.5838 32.8488 59.5832 31.3425 64.387 30.9913C65.155 30.892 66.2702 30.9051 67.0618 30.9106Z" fill="#391C07"/>
<path d="M26.8134 42.8837C29.4776 42.607 32.9576 43.2068 34.8815 45.1921C38.7196 49.1528 37.1315 54.8767 35.2946 59.3741C33.1395 64.6503 30.6833 69.793 28.8294 75.1827C28.1518 77.1552 27.5674 79.3197 27.4622 81.3996C27.4262 82.1802 27.6806 82.9286 28.2409 83.4821C30.0611 84.1534 30.3425 79.1181 32.9419 78.4968C35.6412 77.8518 38.0445 79.0771 38.9407 81.7232C40.9671 87.7064 34.5416 94.3472 29.3125 96.197C25.3801 97.5539 20.916 96.448 18.8858 92.648C14.1709 83.6986 18.8719 72.6024 21.8665 63.8296C22.3973 62.2746 24.8531 57.2885 24.0992 56.0903C22.8839 55.4275 19.0116 56.8765 17.2466 57.1898C11.539 58.203 9.18137 52.071 12.5326 48.0816C15.1648 44.9482 22.5457 43.2502 26.8134 42.8837Z" fill="#391C07"/>
<path d="M155.242 31.9188C158.026 31.6963 161.706 32.1249 164.208 33.2837C169.699 35.8253 170.885 42.0919 168.219 47.1875C166.416 50.6376 163.933 53.0301 161.359 55.8893C155.715 62.1593 148.997 68.0978 144.898 75.5338C144.154 76.9011 143.538 79.0561 144.133 80.5368C144.472 81.3832 145.279 82.1955 146.157 82.4807C150.194 83.7913 157.566 82.92 161.407 81.3401C166.712 79.5323 163.069 75.6574 164.364 73.2068C166.815 68.5698 173.109 70.0807 174.625 74.7385C175.663 77.9233 175.307 80.8833 174.06 83.7202C172.198 87.9549 168.1 90.6053 163.948 92.1737C156.438 94.8981 141.24 96.0252 135.292 89.5497C127.28 80.827 137.586 67.968 143.368 61.1514C146.253 57.7906 149.221 54.5037 152.274 51.2941C153.448 50.0355 157.339 46.4298 157.306 44.7959C157.3 44.5241 157.168 44.2863 156.965 44.1099C154.782 42.2172 143.822 45.2512 140.618 45.5671C138.933 45.7333 137.206 45.5818 135.863 44.4532C134.883 43.6255 134.283 42.4365 134.202 41.1595C133.993 37.7915 136.609 35.7257 139.555 34.7834C144.627 33.1605 149.928 32.2497 155.242 31.9188Z" fill="#391C07"/>
<path d="M120.147 37.9623C122.566 37.7755 125.489 38.6769 125.962 41.469C126.35 43.7642 125.942 46.9307 125.771 49.2884C125.484 52.9016 125.243 56.518 125.045 60.1371C124.643 68.5844 124.649 76.9833 125.53 85.4021C125.992 89.8205 126.2 93.4633 120.8 94.2521C119.752 94.2191 118.786 94.0249 117.882 93.474C116.172 92.4328 115.652 90.5419 115.226 88.7106C114.406 85.1842 114.001 81.5063 113.767 77.8995C113.311 70.8652 113.147 45.3507 116.324 40.4012C117.216 39.0106 118.576 38.3241 120.147 37.9623Z" fill="#391C07"/>
<path d="M234.759 81.9647C235.638 81.9508 236.444 81.8319 237.136 82.3717C237.585 83.6476 235.117 84.6756 236.48 85.9194C238.264 87.5511 239.27 84.6967 240.257 84.6126C242.254 85.9564 238.668 89.1631 235.698 87.3385C235.612 87.2407 235.187 86.8152 235.147 86.8403C234.106 87.4705 232.833 88.2355 231.569 88.0241C230.221 87.7982 228.824 85.49 230.45 84.6784C231.574 84.7801 231.077 86.0092 232.165 86.4664C232.737 86.506 233.392 86.222 233.878 85.9181C235.584 84.8506 233.482 84.0513 233.818 82.6633C234.139 82.2219 234.244 82.212 234.759 81.9647Z" fill="#391C07"/>
<path d="M198.385 81.7174C198.846 81.6392 199.31 81.5984 199.717 81.8227C200.037 82.252 199.995 82.0745 200.03 82.5587C199.493 83.7466 195.916 84.7521 194.468 85.3394C193.237 85.5363 192.17 84.7794 192.889 83.7656C193.776 82.5173 196.837 81.955 198.385 81.7174Z" fill="#391C07"/>
<path d="M252.955 80.6204C254.384 80.4932 261.094 81.0287 258.608 83.7711C257.941 83.9357 257.091 83.7522 256.463 83.5015C255.28 83.0289 252.866 82.8266 252.474 81.4979C252.552 81.0225 252.616 80.9958 252.955 80.6204Z" fill="#391C07"/>
<path d="M227.279 76.4031C231.062 76.191 231.067 82.0942 227.658 83.6148C223.832 83.7644 223.85 77.9268 227.279 76.4031Z" fill="#391C07"/>
<path d="M244.014 76.1429C247.688 76.2377 247.445 82.084 244.104 83.3743C240.33 83.4179 240.629 77.2948 244.014 76.1429Z" fill="#391C07"/>
<path d="M194.056 76.6756C195.314 76.613 202.826 77.8207 199.422 79.9133C197.673 79.5641 194.09 79.403 193.116 78.3553C192.836 77.4711 193.331 77.1309 194.056 76.6756Z" fill="#391C07"/>
<path d="M258.734 75.3863C259.716 75.4717 260.302 76.2924 259.839 76.897C258.955 78.0498 255.16 78.3806 253.762 78.75C253.491 78.7761 253.348 78.7537 253.079 78.7354C252.728 78.4951 252.731 78.465 252.572 78.0522C252.848 76.292 257.254 75.5264 258.734 75.3863Z" fill="#391C07"/>
<path d="M9.44634 61.7203C10.8844 61.8295 11.3276 63.0167 10.6638 63.8186C8.58752 66.3268 8.55117 68.0764 8.37019 71.2161C8.34272 71.6919 7.7852 72.0502 7.36459 72.2865C3.93213 71.5459 6.41459 63.14 9.44634 61.7203Z" fill="#391C07"/>
<path d="M107.875 51.5716C108.878 51.4867 109.847 51.5586 110.695 52.1544C111.486 52.7092 111.984 53.5358 112.158 54.4739C112.609 56.9053 112.112 67.4872 110.744 69.3689C109.977 70.4237 108.919 70.755 107.695 70.9566C104.219 70.9421 103.345 68.6316 103.334 65.5246C103.319 61.5925 103.684 57.2232 105.168 53.5561C105.627 52.4238 106.798 51.909 107.875 51.5716Z" fill="#391C07"/>
<path d="M3.86233 57.901C8.03293 57.2295 3.71873 62.1759 3.2185 63.4323C2.64306 64.8776 2.9514 66.8016 1.76665 67.8545C-0.0336412 68.1237 -0.146194 66.5408 0.0930398 65.2007C0.536478 62.715 1.75594 59.4448 3.86233 57.901Z" fill="#391C07"/>
<path d="M129.773 50.7878C132.505 50.9363 133.48 52.5786 134.678 54.7925C136.613 58.3672 138.18 63.3613 132.905 64.7521C129.143 65.1797 128.327 62.6864 127.389 59.6933C126.269 56.1202 124.382 51.8473 129.773 50.7878Z" fill="#391C07"/>
<path d="M24.8559 24.2705C28.3161 23.7988 31.5066 26.2062 31.9866 29.6511C32.4664 33.0959 30.0545 36.2769 26.5961 36.7609C23.1288 37.2461 19.9243 34.8371 19.4433 31.3837C18.9622 27.9303 21.387 24.7435 24.8559 24.2705Z" fill="#391C07"/>
<path d="M178.711 31.0983C181.232 30.8302 181.583 33.4541 178.705 33.9253C177.405 34.1382 175.933 34.3951 174.612 34.5953C174.065 34.6973 173.952 34.7302 173.407 34.6487C170.14 32.7075 177.749 31.2773 178.711 31.0983Z" fill="#391C07"/>
<path d="M248.177 5.99794C250.043 5.84243 251.423 5.87568 253.195 6.61003C255.347 7.50876 257.05 9.22607 257.926 11.3807C259.226 14.572 258.516 18.5343 257.18 21.6041C255.378 25.7018 252.321 29.1875 248.936 32.0771C247.993 32.8433 245.914 34.7392 244.624 34.0265C242.407 32.8019 246.305 30.178 247.215 29.321C251.303 25.4712 256.247 19.4906 254.65 13.5956C253.195 10.3123 249.96 9.24494 246.663 10.4656C240.227 12.8479 235.813 19.9366 233.011 25.8315C231.562 28.8776 228.87 27.2968 230.182 24.5224C233.345 17.1869 239.66 7.49063 248.177 5.99794Z" fill="#391C07"/>
<path d="M122.002 20.9766C125.344 20.5711 128.392 22.9168 128.841 26.2393C129.29 29.5617 126.973 32.6259 123.642 33.1143C121.45 33.4358 119.254 32.5583 117.893 30.8176C116.532 29.0768 116.217 26.7415 117.068 24.7045C117.918 22.6675 119.803 21.2434 122.002 20.9766Z" fill="#391C07"/>
<path d="M174.702 22.8688C178.704 23.6026 173.443 27.3473 172.404 28.3504C171.89 28.8455 171.244 29.3822 170.649 29.7569C169.967 29.7545 169.693 29.7638 169.242 29.2414C168.621 27.5379 173.312 23.4349 174.702 22.8688Z" fill="#391C07"/>
<path d="M212.061 0.0627844C213.019 -0.0970843 214.825 0.0664375 215.766 0.349304C224.332 2.9287 226.02 14.317 225.708 21.9275C225.648 23.4072 225.656 27.6034 223.233 26.8126C221.99 26.4067 222.358 24.4588 222.328 23.4829C222.444 19.1597 222.065 14.9305 220.417 10.8938C218.563 6.35348 215.211 2.94778 210.091 5.09075C203.775 8.50346 205.664 18.1135 208.014 23.445C208.585 24.7426 209.262 25.9187 209.768 27.2661C210.444 29.0599 208.771 29.8843 207.384 28.9449C206.3 28.1071 205.396 25.9705 204.793 24.6741C201.802 18.2511 200.516 10.089 205.07 4.03081C206.867 1.64793 209.199 0.447547 212.061 0.0627844Z" fill="#391C07"/>
<path d="M166.036 17.2035C169.194 16.9665 167.778 20.2012 167.264 22.0342C166.887 23.3781 166.3 26.2433 165.406 27.1114C162.365 27.8627 163.996 23.3074 164.262 21.7431C164.506 20.3091 164.887 18.1021 166.036 17.2035Z" fill="#391C07"/>
</svg>
