<svg width="24" height="24" viewBox="0 0 24 24" fill="none" xmlns="http://www.w3.org/2000/svg">
<path d="M17.501 3C18.0528 3.00053 18.501 3.44804 18.501 4C18.501 4.55196 18.0528 4.99947 17.501 5H13.877L12.5645 19H16.4678C17.0196 19.0005 17.4678 19.448 17.4678 20C17.4678 20.552 17.0196 20.9995 16.4678 21H6.49902C5.94674 21 5.49902 20.5523 5.49902 20C5.49902 19.4477 5.94674 19 6.49902 19H10.5547L11.8672 5H7.46777C6.91549 5 6.4668 4.55228 6.4668 4C6.4668 3.44772 6.91549 3 7.46777 3H17.501Z" fill="black"/>
</svg>
